PathFileType	4	(X/Y/Z)	C:\Users\Willi\Documents\GitHub\processC3D_GUI\exampleC3Dfiles\fws_end01_L1\marker_experimental.trc
DataRate	CameraRate	NumFrames	NumMarkers	Units	OrigDataRate	OrigDataStartFrame	OrigNumFrames
2.000000e+02	2.000000e+02	12	51	m	2.000000e+02	278	317
Frame#	Time	CLAV			GLAB			LANK			LASI			LELB			LFIN			LFMH			LHEE			LKNE			LMAS			LPEL			LPSI			LSHO			LTHAD			LTHAP			LTHI			LTIAD			LTIAP			LTIB			LTOE			LVMH			LWRA			LWRB			RANK			RASI			RBAK			RELB			RFIN			RFMH			RHEE			RKNE			RMAS			RPEL			RPSI			RSHO			RTHAD			RTHAP			RTHI			RTIAD			RTIAP			RTIB			RTOE			RVMH			RWRA			RWRB			SACR			T10			T2			not_labelled_48			not_labelled_49			not_labelled_50		
		X1	Y1	Z1	X2	Y2	Z2	X3	Y3	Z3	X4	Y4	Z4	X5	Y5	Z5	X6	Y6	Z6	X7	Y7	Z7	X8	Y8	Z8	X9	Y9	Z9	X10	Y10	Z10	X11	Y11	Z11	X12	Y12	Z12	X13	Y13	Z13	X14	Y14	Z14	X15	Y15	Z15	X16	Y16	Z16	X17	Y17	Z17	X18	Y18	Z18	X19	Y19	Z19	X20	Y20	Z20	X21	Y21	Z21	X22	Y22	Z22	X23	Y23	Z23	X24	Y24	Z24	X25	Y25	Z25	X26	Y26	Z26	X27	Y27	Z27	X28	Y28	Z28	X29	Y29	Z29	X30	Y30	Z30	X31	Y31	Z31	X32	Y32	Z32	X33	Y33	Z33	X34	Y34	Z34	X35	Y35	Z35	X36	Y36	Z36	X37	Y37	Z37	X38	Y38	Z38	X39	Y39	Z39	X40	Y40	Z40	X41	Y41	Z41	X42	Y42	Z42	X43	Y43	Z43	X44	Y44	Z44	X45	Y45	Z45	X46	Y46	Z46	X47	Y47	Z47	X48	Y48	Z48	X49	Y49	Z49	X50	Y50	Z50	X51	Y51	Z51
278	1.96000	0.541	1.366	0.343	0.662	1.575	0.362	0.750	0.108	0.249	0.506	0.974	0.237	0.422	1.078	0.110	0.436	0.756	0.077	0.941	0.151	0.330	0.700	0.070	0.290	0.603	0.512	0.217	0.533	1.539	0.279	0.442	0.994	0.208	0.349	0.994	0.291	0.506	1.393	0.178	0.565	0.647	0.188	0.527	0.701	0.184	0.514	0.638	0.198	0.718	0.255	0.232	0.678	0.306	0.218	0.670	0.241	0.225	0.906	0.148	0.297	0.940	0.145	0.274	0.455	0.822	0.101	0.403	0.833	0.075	0.124	0.119	0.426	0.488	0.969	0.473	0.348	1.344	0.435	0.449	1.063	0.587	0.632	0.815	0.615	0.311	0.060	0.369	0.052	0.105	0.379	0.324	0.497	0.473	0.523	1.531	0.424	0.435	1.028	0.488	0.338	1.005	0.398	0.488	1.389	0.506	0.387	0.636	0.496	0.402	0.700	0.508	0.345	0.666	0.505	0.217	0.245	0.447	0.238	0.307	0.460	0.179	0.277	0.459	0.268	0.077	0.388	0.291	0.054	0.425	0.619	0.857	0.577	0.565	0.830	0.623	0.343	1.030	0.344	0.335	1.216	0.341	0.405	1.432	0.344	-0.000	0.011	-0.000	0.720	0.012	-0.006	-0.000	0.011	0.762
279	1.96500	0.542	1.365	0.342	0.662	1.575	0.362	0.748	0.107	0.251	0.507	0.973	0.237	0.422	1.078	0.110	0.435	0.755	0.076	0.939	0.147	0.331	0.698	0.071	0.291	0.604	0.512	0.218	0.534	1.538	0.278	0.442	0.994	0.208	0.350	0.993	0.290	0.506	1.393	0.178	0.566	0.646	0.189	0.528	0.701	0.184	0.515	0.638	0.199	0.717	0.254	0.233	0.677	0.305	0.220	0.669	0.240	0.226	0.905	0.144	0.299	0.939	0.141	0.275	0.455	0.821	0.101	0.402	0.833	0.074	0.119	0.121	0.426	0.489	0.968	0.472	0.349	1.343	0.434	0.449	1.062	0.586	0.632	0.814	0.615	0.305	0.060	0.369	0.047	0.107	0.380	0.323	0.497	0.473	0.523	1.530	0.423	0.436	1.027	0.488	0.339	1.004	0.398	0.488	1.388	0.505	0.387	0.636	0.495	0.402	0.699	0.508	0.345	0.666	0.505	0.214	0.246	0.447	0.235	0.308	0.460	0.176	0.279	0.459	0.263	0.076	0.389	0.285	0.054	0.425	0.620	0.855	0.576	0.565	0.829	0.623	0.343	1.029	0.344	0.335	1.216	0.341	0.406	1.432	0.344	-0.000	0.011	-0.000	0.720	0.012	-0.006	-0.000	0.011	0.762
280	1.97000	0.542	1.365	0.341	0.663	1.574	0.361	0.745	0.106	0.252	0.508	0.973	0.237	0.422	1.077	0.109	0.434	0.755	0.076	0.938	0.142	0.332	0.695	0.071	0.293	0.605	0.512	0.218	0.534	1.538	0.278	0.443	0.993	0.208	0.351	0.993	0.290	0.506	1.392	0.177	0.567	0.646	0.190	0.529	0.701	0.185	0.516	0.638	0.201	0.716	0.253	0.234	0.677	0.304	0.221	0.668	0.239	0.228	0.903	0.140	0.300	0.937	0.136	0.276	0.454	0.821	0.100	0.401	0.832	0.074	0.114	0.122	0.426	0.490	0.968	0.472	0.349	1.342	0.434	0.450	1.062	0.585	0.632	0.813	0.614	0.299	0.060	0.369	0.042	0.110	0.380	0.323	0.496	0.472	0.524	1.529	0.422	0.436	1.026	0.488	0.339	1.003	0.398	0.489	1.388	0.504	0.387	0.635	0.495	0.402	0.699	0.508	0.346	0.665	0.505	0.210	0.247	0.447	0.232	0.308	0.460	0.173	0.280	0.459	0.258	0.076	0.389	0.278	0.054	0.425	0.620	0.854	0.576	0.565	0.828	0.623	0.344	1.028	0.343	0.336	1.215	0.341	0.406	1.431	0.343	-0.000	0.011	-0.000	0.720	0.012	-0.006	-0.000	0.011	0.762
281	1.97500	0.543	1.364	0.340	0.663	1.574	0.361	0.742	0.106	0.253	0.508	0.972	0.237	0.421	1.076	0.109	0.434	0.754	0.075	0.936	0.136	0.333	0.691	0.072	0.294	0.606	0.512	0.219	0.535	1.537	0.277	0.444	0.993	0.208	0.351	0.992	0.290	0.507	1.391	0.176	0.568	0.646	0.190	0.530	0.700	0.185	0.517	0.638	0.202	0.716	0.251	0.236	0.676	0.303	0.222	0.667	0.238	0.229	0.901	0.136	0.301	0.935	0.131	0.277	0.454	0.820	0.099	0.401	0.831	0.074	0.109	0.124	0.427	0.490	0.967	0.472	0.350	1.342	0.433	0.451	1.061	0.585	0.632	0.812	0.614	0.292	0.060	0.369	0.038	0.113	0.380	0.322	0.496	0.472	0.524	1.529	0.421	0.437	1.026	0.488	0.340	1.002	0.397	0.489	1.387	0.503	0.387	0.635	0.495	0.403	0.698	0.507	0.346	0.665	0.504	0.207	0.248	0.448	0.230	0.309	0.460	0.170	0.281	0.459	0.252	0.075	0.389	0.272	0.053	0.425	0.620	0.853	0.575	0.565	0.828	0.622	0.345	1.027	0.343	0.336	1.215	0.340	0.407	1.430	0.342	-0.000	0.011	-0.000	0.720	0.012	-0.006	-0.000	0.011	0.762
282	1.98000	0.544	1.364	0.340	0.664	1.574	0.360	0.740	0.105	0.254	0.509	0.972	0.236	0.421	1.076	0.109	0.433	0.754	0.075	0.934	0.130	0.334	0.688	0.073	0.295	0.608	0.512	0.220	0.536	1.537	0.276	0.445	0.992	0.207	0.352	0.992	0.290	0.507	1.391	0.175	0.569	0.646	0.191	0.532	0.700	0.186	0.519	0.638	0.203	0.715	0.250	0.237	0.676	0.302	0.223	0.666	0.238	0.230	0.899	0.131	0.302	0.933	0.125	0.278	0.454	0.820	0.099	0.400	0.831	0.073	0.104	0.126	0.427	0.491	0.966	0.472	0.350	1.341	0.432	0.452	1.061	0.584	0.632	0.811	0.613	0.286	0.060	0.369	0.033	0.116	0.380	0.322	0.496	0.472	0.525	1.528	0.421	0.438	1.025	0.488	0.341	1.002	0.397	0.490	1.387	0.502	0.388	0.634	0.495	0.403	0.698	0.507	0.346	0.664	0.504	0.204	0.249	0.448	0.227	0.310	0.460	0.167	0.283	0.459	0.247	0.075	0.390	0.266	0.053	0.425	0.619	0.852	0.575	0.565	0.827	0.622	0.346	1.027	0.343	0.337	1.214	0.340	0.407	1.430	0.341	-0.000	0.011	-0.000	0.720	0.012	-0.006	-0.001	0.011	0.762
283	1.98500	0.544	1.363	0.339	0.664	1.574	0.360	0.736	0.104	0.255	0.510	0.972	0.236	0.421	1.075	0.109	0.433	0.753	0.074	0.932	0.124	0.335	0.684	0.074	0.296	0.609	0.512	0.221	0.536	1.537	0.275	0.446	0.992	0.207	0.353	0.991	0.290	0.507	1.390	0.174	0.570	0.646	0.192	0.533	0.700	0.186	0.520	0.638	0.204	0.714	0.249	0.238	0.676	0.302	0.224	0.665	0.237	0.231	0.896	0.126	0.303	0.931	0.119	0.279	0.454	0.820	0.098	0.400	0.831	0.073	0.100	0.128	0.427	0.492	0.966	0.472	0.351	1.341	0.432	0.453	1.061	0.583	0.631	0.810	0.613	0.280	0.060	0.369	0.029	0.119	0.381	0.323	0.495	0.472	0.525	1.528	0.420	0.439	1.024	0.488	0.342	1.001	0.397	0.490	1.387	0.502	0.388	0.634	0.495	0.404	0.697	0.507	0.347	0.664	0.504	0.201	0.250	0.448	0.225	0.311	0.460	0.165	0.285	0.459	0.242	0.074	0.390	0.259	0.053	0.425	0.619	0.851	0.574	0.565	0.826	0.621	0.347	1.027	0.343	0.337	1.214	0.340	0.408	1.430	0.341	-0.000	0.011	-0.000	0.720	0.012	-0.006	-0.001	0.011	0.762
284	1.99000	0.545	1.363	0.338	0.665	1.574	0.359	0.733	0.104	0.256	0.511	0.972	0.236	0.421	1.075	0.108	0.432	0.753	0.074	0.929	0.117	0.337	0.680	0.074	0.297	0.610	0.512	0.222	0.537	1.537	0.275	0.446	0.992	0.207	0.353	0.991	0.290	0.508	1.390	0.173	0.572	0.646	0.192	0.534	0.700	0.187	0.521	0.639	0.206	0.713	0.248	0.239	0.676	0.301	0.226	0.664	0.237	0.232	0.894	0.122	0.304	0.928	0.113	0.280	0.454	0.819	0.097	0.400	0.830	0.073	0.096	0.131	0.428	0.493	0.966	0.472	0.352	1.341	0.431	0.454	1.061	0.582	0.631	0.809	0.612	0.274	0.060	0.369	0.025	0.123	0.381	0.323	0.495	0.472	0.525	1.528	0.419	0.440	1.024	0.488	0.343	1.001	0.397	0.491	1.387	0.501	0.389	0.633	0.495	0.404	0.697	0.506	0.348	0.663	0.503	0.199	0.251	0.449	0.223	0.312	0.461	0.163	0.287	0.459	0.237	0.073	0.390	0.253	0.053	0.424	0.619	0.850	0.573	0.564	0.826	0.621	0.348	1.026	0.343	0.338	1.213	0.339	0.408	1.429	0.340	-0.000	0.011	-0.000	0.720	0.012	-0.006	-0.001	0.011	0.762
285	1.99500	0.546	1.363	0.337	0.665	1.574	0.359	0.730	0.103	0.257	0.512	0.972	0.235	0.421	1.075	0.108	0.432	0.753	0.073	0.926	0.111	0.338	0.676	0.075	0.297	0.612	0.513	0.222	0.538	1.537	0.274	0.447	0.992	0.207	0.354	0.991	0.290	0.508	1.390	0.173	0.573	0.646	0.193	0.535	0.701	0.188	0.523	0.639	0.207	0.712	0.248	0.241	0.676	0.301	0.227	0.663	0.237	0.233	0.891	0.117	0.305	0.925	0.108	0.281	0.454	0.819	0.097	0.400	0.830	0.073	0.092	0.133	0.428	0.494	0.965	0.471	0.352	1.341	0.430	0.454	1.061	0.582	0.630	0.808	0.611	0.267	0.060	0.369	0.021	0.127	0.381	0.324	0.495	0.473	0.526	1.528	0.418	0.441	1.024	0.488	0.344	1.001	0.397	0.492	1.386	0.500	0.390	0.633	0.495	0.405	0.696	0.506	0.349	0.663	0.503	0.196	0.253	0.449	0.222	0.313	0.461	0.161	0.289	0.459	0.232	0.072	0.390	0.246	0.053	0.424	0.619	0.849	0.573	0.564	0.825	0.620	0.348	1.026	0.343	0.338	1.213	0.339	0.409	1.429	0.339	-0.000	0.011	-0.000	0.720	0.012	-0.006	-0.001	0.011	0.762
286	2.00000	0.546	1.363	0.336	0.666	1.574	0.358	0.726	0.103	0.257	0.513	0.973	0.235	0.421	1.075	0.108	0.432	0.752	0.073	0.923	0.105	0.339	0.671	0.076	0.298	0.614	0.513	0.223	0.538	1.537	0.273	0.449	0.992	0.207	0.355	0.991	0.290	0.508	1.390	0.172	0.574	0.646	0.194	0.537	0.701	0.188	0.524	0.639	0.208	0.711	0.247	0.242	0.676	0.301	0.228	0.662	0.237	0.234	0.887	0.112	0.306	0.922	0.102	0.282	0.454	0.819	0.096	0.400	0.830	0.073	0.088	0.136	0.429	0.495	0.965	0.471	0.353	1.341	0.430	0.455	1.061	0.581	0.630	0.808	0.611	0.261	0.060	0.369	0.017	0.131	0.382	0.325	0.495	0.473	0.526	1.528	0.417	0.442	1.024	0.488	0.345	1.000	0.397	0.492	1.386	0.499	0.391	0.633	0.495	0.406	0.696	0.506	0.350	0.662	0.503	0.194	0.254	0.450	0.221	0.314	0.461	0.159	0.291	0.459	0.227	0.072	0.391	0.240	0.052	0.424	0.618	0.849	0.572	0.564	0.825	0.619	0.349	1.026	0.343	0.339	1.213	0.339	0.409	1.429	0.338	-0.000	0.011	-0.000	0.719	0.012	-0.006	-0.001	0.011	0.762
287	2.00500	0.547	1.363	0.335	0.666	1.574	0.358	0.722	0.102	0.258	0.514	0.973	0.235	0.420	1.075	0.107	0.432	0.752	0.072	0.920	0.100	0.340	0.667	0.077	0.298	0.615	0.514	0.224	0.539	1.537	0.272	0.450	0.992	0.207	0.356	0.991	0.290	0.508	1.390	0.171	0.576	0.647	0.194	0.538	0.701	0.189	0.526	0.640	0.209	0.710	0.246	0.243	0.676	0.301	0.228	0.661	0.237	0.234	0.884	0.108	0.307	0.919	0.097	0.283	0.454	0.819	0.095	0.399	0.830	0.072	0.085	0.139	0.429	0.496	0.965	0.471	0.353	1.341	0.429	0.456	1.061	0.580	0.629	0.807	0.610	0.255	0.060	0.369	0.014	0.135	0.382	0.326	0.494	0.473	0.526	1.528	0.417	0.443	1.023	0.487	0.346	1.000	0.397	0.493	1.387	0.498	0.393	0.632	0.495	0.407	0.696	0.506	0.351	0.662	0.502	0.192	0.256	0.450	0.220	0.315	0.462	0.158	0.293	0.459	0.222	0.071	0.391	0.233	0.052	0.424	0.618	0.848	0.571	0.563	0.825	0.619	0.350	1.026	0.343	0.339	1.213	0.338	0.410	1.429	0.338	-0.000	0.011	-0.000	0.719	0.012	-0.006	-0.001	0.011	0.762
288	2.01000	0.547	1.363	0.334	0.666	1.574	0.357	0.719	0.102	0.258	0.515	0.973	0.235	0.420	1.075	0.107	0.432	0.752	0.072	0.916	0.094	0.341	0.662	0.078	0.298	0.617	0.514	0.224	0.539	1.537	0.272	0.451	0.993	0.207	0.356	0.991	0.290	0.508	1.390	0.170	0.577	0.648	0.195	0.540	0.702	0.189	0.528	0.641	0.209	0.709	0.246	0.244	0.676	0.301	0.229	0.660	0.237	0.234	0.880	0.104	0.308	0.915	0.092	0.283	0.455	0.819	0.095	0.399	0.830	0.072	0.082	0.141	0.429	0.497	0.965	0.471	0.354	1.341	0.429	0.456	1.061	0.579	0.628	0.806	0.609	0.249	0.060	0.369	0.011	0.140	0.382	0.328	0.494	0.473	0.527	1.528	0.416	0.445	1.023	0.487	0.347	1.000	0.397	0.494	1.387	0.497	0.394	0.632	0.495	0.409	0.696	0.506	0.352	0.661	0.502	0.191	0.258	0.451	0.219	0.317	0.462	0.157	0.295	0.460	0.218	0.070	0.391	0.227	0.052	0.424	0.617	0.847	0.570	0.562	0.825	0.618	0.351	1.026	0.343	0.340	1.213	0.338	0.410	1.429	0.337	-0.000	0.011	-0.000	0.719	0.012	-0.006	-0.001	0.011	0.762
289	2.01500	0.548	1.364	0.333	0.667	1.574	0.357	0.714	0.101	0.258	0.517	0.974	0.235	0.421	1.075	0.107	0.432	0.753	0.071	0.912	0.090	0.341	0.658	0.079	0.298	0.618	0.515	0.225	0.540	1.537	0.271	0.452	0.993	0.206	0.357	0.991	0.290	0.508	1.390	0.169	0.579	0.648	0.195	0.542	0.703	0.190	0.529	0.641	0.210	0.708	0.245	0.245	0.675	0.301	0.230	0.659	0.237	0.234	0.876	0.100	0.309	0.911	0.088	0.284	0.455	0.820	0.094	0.400	0.830	0.072	0.079	0.145	0.430	0.498	0.965	0.470	0.355	1.341	0.428	0.457	1.061	0.578	0.628	0.806	0.609	0.243	0.060	0.369	0.009	0.145	0.382	0.330	0.494	0.474	0.527	1.528	0.415	0.446	1.024	0.487	0.348	1.000	0.397	0.494	1.387	0.497	0.396	0.632	0.495	0.410	0.695	0.505	0.354	0.661	0.502	0.190	0.259	0.452	0.219	0.318	0.463	0.156	0.297	0.460	0.213	0.069	0.391	0.221	0.052	0.424	0.617	0.847	0.570	0.562	0.824	0.618	0.352	1.026	0.343	0.340	1.213	0.338	0.411	1.429	0.336	-0.000	0.011	-0.000	0.719	0.012	-0.006	-0.001	0.011	0.762
